<svg width="32" height="32" fill="none" xmlns="http://www.w3.org/2000/svg"><rect x="26.608" y="14.074" width="4.276" height="3.804" rx="1.902" transform="rotate(-11.038 26.608 14.074)" fill="#000" stroke="#000" stroke-width=".32"/><rect x="25.15" y="12.234" width="4.276" height="7.973" rx="2.138" transform="rotate(-11.038 25.15 12.234)" fill="#0F5FFE" stroke="#000" stroke-width=".32"/><rect x="5.676" y="22.111" width="4.276" height="3.804" rx="1.902" transform="rotate(168.783 5.676 22.11)" fill="#000" stroke="#000" stroke-width=".32"/><rect x="7.14" y="23.945" width="4.276" height="7.973" rx="2.138" transform="rotate(168.783 7.14 23.945)" fill="#0F5FFE" stroke="#000" stroke-width=".32"/><mask id="a" maskUnits="userSpaceOnUse" x="-1.544" y="-.083" width="35.174" height="34.66" fill="#000"><path fill="#fff" d="M-1.544-.083H33.63v34.66H-1.544z"/><path d="M11.216 6.26a12.798 12.798 0 0 1 3.778-1.01c1.597-.171 3.208-.486 4.567-1.34l2.194-1.38a.96.96 0 0 1 1.46.66l.23 1.438c.322 2.006 1.493 3.742 2.715 5.365a11.812 11.812 0 0 1 1.378 2.358c2.695 6.138-.245 13.362-6.564 16.136-6.32 2.775-13.627.048-16.322-6.09-2.694-6.137.245-13.362 6.564-16.137Z"/></mask><path d="M11.216 6.26a12.798 12.798 0 0 1 3.778-1.01c1.597-.171 3.208-.486 4.567-1.34l2.194-1.38a.96.96 0 0 1 1.46.66l.23 1.438c.322 2.006 1.493 3.742 2.715 5.365a11.812 11.812 0 0 1 1.378 2.358c2.695 6.138-.245 13.362-6.564 16.136-6.32 2.775-13.627.048-16.322-6.09-2.694-6.137.245-13.362 6.564-16.137Z" fill="#fff"/><path d="m11.216 6.26-.128-.293.129.293Zm3.778-1.01-.034-.318.034.318Zm4.567-1.34.17.27-.17-.27Zm2.194-1.38.17.27-.17-.27Zm1.46.66-.316.05.316-.05Zm.23 1.438.316-.05-.316.05Zm2.715 5.365-.256.192.256-.192Zm1.378 2.358.293-.129-.293.13Zm-6.564 16.136.128.294-.128-.293Zm-16.322-6.09-.293.13.293-.13ZM11.216 6.26l.13.293a12.478 12.478 0 0 1 3.683-.984l-.035-.319-.034-.318c-1.301.14-2.606.48-3.872 1.035l.129.293Zm3.778-1.01.035.319c1.608-.174 3.28-.494 4.703-1.389l-.17-.27-.171-.272c-1.296.815-2.846 1.124-4.43 1.294l.033.318Zm4.567-1.34.17.27 2.194-1.38-.17-.27-.17-.272-2.194 1.38.17.271Zm2.194-1.38.17.27a.64.64 0 0 1 .974.44l.316-.05.316-.051a1.28 1.28 0 0 0-1.947-.88l.17.27Zm1.46.66-.316.05.23 1.439.316-.05.316-.051-.23-1.44-.316.051Zm.23 1.438-.316.05c.335 2.092 1.553 3.884 2.775 5.507l.256-.192.255-.193c-1.221-1.622-2.346-3.303-2.654-5.222l-.316.05Zm2.715 5.365-.256.192c.524.697.976 1.463 1.341 2.295l.293-.129.293-.129A12.13 12.13 0 0 0 26.415 9.8l-.255.193Zm1.378 2.358-.293.129c2.62 5.968-.234 13.008-6.4 15.715l.129.293.128.293c6.474-2.842 9.498-10.25 6.73-16.558l-.294.128Zm-6.564 16.136-.129-.292c-6.166 2.706-13.28.042-15.9-5.926l-.293.129-.293.128c2.77 6.308 10.27 9.096 16.743 6.255l-.128-.293Zm-16.322-6.09.293-.128c-2.62-5.968.234-13.009 6.4-15.716l-.129-.293-.128-.293C4.614 8.81 1.59 16.22 4.359 22.527l.293-.13Z" fill="#000" mask="url(#a)"/><path d="M14.253 6.941c5.926-1.075 11.547 2.405 12.528 7.81.982 5.406-3.059 10.64-8.985 11.715-5.926 1.075-11.547-2.405-12.528-7.81-.981-5.406 3.06-10.64 8.985-11.715Z" fill="#fff" stroke="#000" stroke-width=".32"/><ellipse cx="16.025" cy="16.704" rx="10.773" ry="9.762" transform="rotate(-10.286 16.025 16.704)" fill="#0F5FFE"/><mask id="b" style="mask-type:alpha" maskUnits="userSpaceOnUse" x="5" y="6" width="22" height="21"><ellipse cx="16.025" cy="16.704" rx="10.773" ry="9.762" transform="rotate(-10.286 16.025 16.704)" fill="#0047FF"/></mask><g mask="url(#b)"><path opacity=".9" d="M8.978 19.28c.038-.186-.15-.38-.419-.435-.27-.055-.518.052-.557.239-.038.186.15.381.419.436.27.054.519-.053.557-.24ZM23.873 17.26c.24-.133.36-.375.268-.542-.092-.166-.361-.193-.602-.06-.24.134-.361.376-.27.543.093.166.363.193.604.06Z" fill="#fff"/><path d="M8.088 20.031s.738 1.74 3.224 1.204c2.486-.535 2.288-3.141 5.022-3.536 2.61-.378 2.823 2.222 5.363 1.823 2.541-.4 2.975-1.82 2.975-1.82" stroke="#fff" stroke-width=".32" stroke-linecap="round" stroke-linejoin="round"/><path d="M7.52 24.459c-1.033-2.015-.266-3.832.568-4.428l.24.39.324.36 1.04.478 1.168.048 1.074-.205 1.193-.92.625-.903.719-.649 1.056-.774 1.159-.236 1.345.27 1.196.9 1.101.646 1.115.163 1.443-.245 1.003-.658.783-.994c1.096-.405 2.198 2.575 1.928 3.921-.27 1.346-1.563 3.55-7.55 5.763-5.988 2.213-10.382-.686-11.53-2.927Z" fill="#fff"/><path d="M8.087 20.031s.74 1.74 3.225 1.204c2.486-.535 2.287-3.141 5.022-3.536 2.609-.378 2.823 2.222 5.363 1.823 2.54-.4 2.974-1.82 2.974-1.82" stroke="#000" stroke-width=".32" stroke-linecap="round" stroke-linejoin="round"/><path d="M15.306 20.395s.568 2.073 1.908 1.833c1.183-.212 1.017-2.5 1.017-2.5l-2.926.667Z" fill="#F94B54"/><mask id="c" style="mask-type:alpha" maskUnits="userSpaceOnUse" x="15" y="19" width="4" height="4"><path d="M15.305 20.395s.569 2.073 1.909 1.833c1.182-.212 1.016-2.5 1.016-2.5l-2.925.667Z" fill="#F94B54"/></mask><g mask="url(#c)"><path d="M15.539 22.052s1.641-1.285 2.718-1.192c1.077.093 1.586 1.727.808 2.185-.78.457-.547.519-1.481.547-.934.028-2.045-1.54-2.045-1.54Z" fill="#F97F75"/></g><path d="M14.54 17.097a3.947 3.947 0 0 1 1.641-.674c.979-.164 1.456.118 1.456.118" stroke="#000" stroke-width=".32" stroke-linecap="round" stroke-linejoin="round"/><path d="M10.666 13.302c-.106.23.235.637.769.906.534.27 1.043.303 1.148.073.192-.418-.157-.808-.686-1.08-.53-.272-1.04-.317-1.231.1ZM20.381 11.715c.17.188-.036.68-.462 1.098-.427.418-.897.6-1.073.418-.307-.34-.086-.821.332-1.237.419-.415.895-.624 1.203-.279Z" fill="#000"/><path d="M15.305 20.395s.568 2.073 1.908 1.833c1.183-.212 1.017-2.5 1.017-2.5l-2.925.667Z" stroke="#000" stroke-width=".32" stroke-linecap="round" stroke-linejoin="round"/><path d="M22.39 16.858c.769-.621.889-1.745.268-2.51a1.79 1.79 0 0 0-2.515-.263 1.783 1.783 0 0 0-.268 2.51 1.79 1.79 0 0 0 2.515.263Z" fill="#fff" stroke="#000" stroke-width=".32" stroke-miterlimit="10"/><path d="M20.42 15.68c.189.752.901 1.22 1.592 1.045.692-.174 1.098-.924.909-1.675-.188-.75-.903-1.22-1.593-1.046-.69.174-1.096.927-.908 1.676Z" fill="#000"/><path d="M21.902 15.242a.33.33 0 0 0 .38.34.332.332 0 0 0 .266-.435.331.331 0 0 0-.534-.137.337.337 0 0 0-.112.232ZM21.753 15.834a.165.165 0 0 0 .19.17.166.166 0 0 0 .133-.218.166.166 0 0 0-.145-.111.17.17 0 0 0-.178.159Z" fill="#fff"/><path d="M8.571 17.176a1.778 1.778 0 0 0 .984 1.722 1.793 1.793 0 0 0 2.525-1.123 1.778 1.778 0 0 0-.627-1.88 1.791 1.791 0 0 0-2.882 1.281Z" fill="#fff" stroke="#000" stroke-width=".32" stroke-miterlimit="10"/><path d="M11.968 16.918c.111.767-.37 1.47-1.076 1.572-.705.102-1.366-.438-1.479-1.204-.113-.766.371-1.47 1.076-1.572.705-.101 1.368.438 1.48 1.204Z" fill="#000"/><path d="M10.953 16.976a.33.33 0 0 0 .19.31.331.331 0 0 0 .453-.406.33.33 0 0 0-.61-.031.337.337 0 0 0-.033.127ZM10.808 17.569a.165.165 0 0 0 .096.156.167.167 0 0 0 .23-.109.165.165 0 0 0-.31-.11.166.166 0 0 0-.016.063Z" fill="#fff"/><path opacity=".9" d="M7.744 13.711s1.033-2.891 4.443-3.923" stroke="#fff" stroke-width=".96" stroke-linecap="round" stroke-linejoin="round"/><path opacity=".9" d="M14.044 9.244a.539.539 0 1 0-1.065.162.539.539 0 0 0 1.065-.162Z" fill="#fff"/></g><path d="m19.51 21.714 5.231-1.43a5.12 5.12 0 0 0 2.253-1.302l3.675-3.64" stroke="#000" stroke-width=".64" stroke-linecap="round" stroke-linejoin="round"/><path d="m21.649 20.273-2.634.689a.356.356 0 0 0-.255.433l.21.802c.049.19.243.303.433.253l2.634-.688a.356.356 0 0 0 .254-.434l-.209-.801a.355.355 0 0 0-.433-.254ZM16.05 27.317l-.19.003a.374.374 0 0 0-.368.38l.02 1.182c.003.205.173.37.38.365l.191-.003a.374.374 0 0 0 .368-.38l-.02-1.181a.373.373 0 0 0-.38-.366ZM14.63 27.67l-.19.003a.374.374 0 0 0-.368.38l.009.53c.003.206.174.37.38.366l.191-.004a.374.374 0 0 0 .368-.38l-.01-.53a.373.373 0 0 0-.38-.365ZM17.567 27.617l-.19.003a.374.374 0 0 0-.368.38l.009.53c.003.205.173.37.38.365l.19-.003a.374.374 0 0 0 .368-.38l-.008-.53a.373.373 0 0 0-.38-.365Z" fill="#000"/><path d="M10.953 28.029a.45.45 0 1 0-.195-.878.45.45 0 0 0 .195.878Z" fill="#02E887" stroke="#000" stroke-width=".32" stroke-miterlimit="10"/><path d="M12.338 28.457a.45.45 0 1 0-.195-.877.45.45 0 0 0 .195.877Z" fill="#F0616D" stroke="#000" stroke-width=".32" stroke-miterlimit="10"/></svg>